# xmcd CD database file generated by freedbAccess_ocx
#
# Track frame offsets:
#       150
#       12006
#       25528
#       52385
#       67151
#       84632
#       98145
#       117244
#       127319
#       141088
#       155427
#       170056
#       191105
#       200623
#       217613
#       229646
#       248274
#
# Disc length: 3448 seconds
#
# Revision: 0
# Processed by: cddbd v1.4PL0 Copyright (c) Steve Scherf et al.
# Submitted via: CDnGo 1.95
#
DISCID=ec0d7611
DTITLE=Ball and Chain - Bare Bones
DYEAR=2001
DGENRE=Folk
TTITLE0=Baby We're Really in Love
TTITLE1=Mississippi Valley Bluse
TTITLE2=Last Cowboy
TTITLE3=If Crying Would Make You Care
TTITLE4=Take Me Back
TTITLE5=Crow Black Chicken
TTITLE6=Devil Woman
TTITLE7=Can't Stop Lovin' You
TTITLE8=Blue Must Be the Color of the Blues
TTITLE9=Seein Double C&W
TTITLE10=Hey Hey Hey
TTITLE11=Please Tell Me Now
TTITLE12=Wayne Perry Waltz
TTITLE13=My Baby's Gone
TTITLE14=Drivin' Nails in My Coffin
TTITLE15=Loon On the Lake
TTITLE16=Daydreamin'
EXTD=
EXTT0=
EXTT1=
EXTT2=
EXTT3=
EXTT4=
EXTT5=
EXTT6=
EXTT7=
EXTT8=
EXTT9=
EXTT10=
EXTT11=
EXTT12=
EXTT13=
EXTT14=
EXTT15=
EXTT16=
PLAYORDER=
